<?xml version="1.0" encoding="utf-8"?>
<!-- Generator: Adobe Illustrator 25.0.0, SVG Export Plug-In . SVG Version: 6.00 Build 0)  -->
<svg version="1.1" id="Layer_1" xmlns="http://www.w3.org/2000/svg" xmlns:xlink="http://www.w3.org/1999/xlink" x="0px" y="0px"
	 viewBox="0 0 299.57 152.24" style="enable-background:new 0 0 299.57 152.24;" xml:space="preserve">
<style type="text/css">
	.st0{fill:#8B4513;}
	.st1{fill:none;stroke:#8B4513;stroke-width:2;stroke-miterlimit:10;}
	.st2{fill:#6D6E71;}
	.st3{fill:#FFFFFF;}
	.st4{fill:#B72025;}
	.st5{fill:#1D1D1B;}
	.st6{fill:#F1E8DB;}
	.st7{fill:#F57C00;}
	.st8{fill:#868383;}
	.st9{clip-path:url(#SVGID_2_);}
	.st10{opacity:0.5;}
	.st11{clip-path:url(#SVGID_4_);}
	.st12{fill:#CC9625;}
	.st13{clip-path:url(#SVGID_6_);}
	.st14{fill:#414042;}
</style>
<g>
	<g>
		<path class="st6" d="M154.97,94c-6.83,0-12.08-1.94-15.75-5.81c-3.68-3.87-5.51-9.1-5.51-15.69V37.53
			c0-6.86,1.78-12.27,5.33-16.23c3.55-3.96,8.86-5.94,15.94-5.94c7.01,0,12.29,1.99,15.84,5.97c3.55,3.98,5.33,9.38,5.33,16.21
			v34.98c0,6.46-1.86,11.66-5.58,15.59C166.85,92.04,161.65,94,154.97,94z M154.97,78.41c2.35,0,3.52-2.15,3.52-6.45V38.12
			c0-0.03,0-0.27,0-0.71c0-0.44,0-0.76,0-0.96c0-0.2-0.02-0.53-0.05-0.98c-0.03-0.46-0.08-0.82-0.14-1.07
			c-0.06-0.26-0.15-0.6-0.25-1.01c-0.11-0.41-0.25-0.73-0.44-0.96c-0.18-0.23-0.39-0.46-0.62-0.71c-0.23-0.24-0.52-0.42-0.87-0.53
			c-0.35-0.11-0.74-0.16-1.17-0.16c-0.55,0-1.04,0.08-1.46,0.25c-0.43,0.17-0.76,0.45-1.01,0.85c-0.24,0.4-0.45,0.75-0.62,1.08
			c-0.17,0.32-0.28,0.78-0.34,1.37c-0.06,0.59-0.09,1.01-0.09,1.26c0,0.12,0,0.31,0,0.55c0,0.21,0,0.47,0,0.78c0,0.61,0,0.93,0,0.96
			v33.84C151.45,76.26,152.63,78.41,154.97,78.41z"/>
		<path class="st6" d="M203.45,92.45V75.71H179.9V64.05l19.85-47.42h18.79v47.28h6.86v11.8h-6.86v16.74H203.45z M191.97,63.91h11.48
			V32.59L191.97,63.91z"/>
		<path class="st6" d="M251.02,94c-3.32,0-6.24-0.41-8.76-1.21c-2.51-0.81-4.58-1.91-6.2-3.31c-1.62-1.4-2.92-3.18-3.91-5.33
			c-0.99-2.15-1.69-4.44-2.1-6.88c-0.41-2.44-0.62-5.21-0.62-8.32v-2.7h17.29v2.97c0,3.9,0.33,6.58,0.98,8.02
			c0.65,1.45,1.85,2.17,3.59,2.17c1.61,0,2.7-0.66,3.25-1.99c0.55-1.32,0.82-3.65,0.82-6.97c0-3.96-0.5-6.77-1.49-8.41
			c-0.99-1.65-2.98-2.48-5.97-2.52h-3.2V48.55h2.88c3.08,0,5.15-0.85,6.2-2.54c1.05-1.69,1.58-4.54,1.58-8.53
			c0-2.9-0.34-5.02-1.03-6.38c-0.68-1.36-1.87-2.04-3.54-2.04c-1.59,0-2.66,0.71-3.22,2.13c-0.56,1.42-0.85,3.53-0.85,6.33v4.66
			h-17.29v-5.17c0-6.98,1.89-12.35,5.67-16.1c3.78-3.75,8.99-5.62,15.64-5.62c6.8,0,12.1,1.77,15.91,5.3
			c3.81,3.54,5.72,8.72,5.72,15.55c0,4.3-0.85,8-2.56,11.09c-1.71,3.1-3.8,4.96-6.26,5.6c1.28,0.52,2.42,1.17,3.43,1.97
			c1.01,0.79,1.93,1.84,2.77,3.13c0.84,1.3,1.49,2.95,1.94,4.96s0.69,4.34,0.69,7c0,3.6-0.39,6.83-1.17,9.69
			c-0.78,2.87-1.99,5.4-3.64,7.59s-3.86,3.88-6.65,5.05C258.13,93.41,254.83,94,251.02,94z"/>
	</g>
	<g>
		<g>
			<path class="st6" d="M48.13,100.06c-1.56,0-3.11-0.59-4.36-1.66c-1.37-1.18-2.23-2.83-2.36-4.53c-0.11-1.5,0.35-2.92,1.29-4.01
				l67.44-75.42c0.69-0.8,1.75-1.29,2.88-1.29c1.12,0,2.23,0.47,3.04,1.29c0.8,0.8,1.24,1.86,1.24,2.96
				c-0.07,30.51-21.61,37.36-26.9,38.59L52.32,98.22C51.35,99.37,49.81,100.06,48.13,100.06C48.14,100.06,48.14,100.06,48.13,100.06
				z"/>
		</g>
		<path class="st6" d="M27.49,33.6c-0.04-0.16-0.06-0.32-0.11-0.48c-0.48-1.5,0-2.99,1.2-3.73c1.3-0.8,2.82-0.63,3.97,0.5
			c3.18,3.15,6.33,6.33,9.5,9.49c1.41,1.41,2.81,2.81,4.25,4.25c1.47-1.47,2.87-2.87,4.38-4.38c-0.25-0.25-0.51-0.51-0.77-0.77
			c-4.31-4.31-8.63-8.61-12.93-12.93c-1.73-1.74-1.23-4.44,0.97-5.22c1.34-0.48,2.48-0.09,3.47,0.91
			c4.25,4.27,8.52,8.52,12.78,12.79c0.26,0.26,0.53,0.53,0.84,0.84c1.47-1.47,2.89-2.89,4.38-4.38c-0.28-0.28-0.54-0.54-0.8-0.8
			c-4.29-4.29-8.58-8.56-12.85-12.86c-1.71-1.72-1.3-4.34,0.81-5.2c1.23-0.5,2.41-0.31,3.35,0.62c6.29,6.27,12.68,12.46,18.8,18.89
			c3.75,3.94,4.96,8.89,4.04,14.27c-0.15,0.9,0.06,1.43,0.68,2.05c12.31,12.28,24.6,24.58,36.9,36.88
			c3.84,3.84,4.23,5.76,2.16,10.63c-0.58,0.58-1.17,1.17-1.75,1.75c-0.07,0-0.15-0.01-0.2,0.02c-3.8,2-6.68,1.57-9.7-1.44
			C88.3,82.72,75.73,70.17,63.19,57.58c-0.61-0.61-1.14-0.77-1.98-0.61c-3.74,0.7-7.33,0.16-10.72-1.57
			c-1.03-0.53-1.99-1.19-2.99-1.79C40.83,46.94,34.16,40.27,27.49,33.6z"/>
	</g>
	<g>
		<path class="st6" d="M29.02,138v-25.12h11.23v4.12h-5.08v5.74h4.58v4.27h-4.58V138H29.02z"/>
		<path class="st6" d="M54.01,137.84c-1.02,0.37-2.24,0.55-3.67,0.55s-2.66-0.18-3.67-0.55c-1.01-0.37-1.81-0.92-2.41-1.65
			s-1.03-1.6-1.29-2.59c-0.26-0.99-0.39-2.17-0.39-3.52v-9.27c0-1.35,0.13-2.53,0.39-3.52s0.69-1.86,1.29-2.59s1.4-1.28,2.41-1.65
			c1.01-0.37,2.23-0.55,3.67-0.55s2.66,0.18,3.67,0.55c1.02,0.37,1.82,0.92,2.42,1.65s1.04,1.6,1.3,2.59s0.4,2.17,0.4,3.52v9.27
			c0,1.35-0.13,2.53-0.4,3.52c-0.27,1-0.7,1.86-1.3,2.59S55.03,137.47,54.01,137.84z M50.34,134.13c0.33,0,0.61-0.07,0.82-0.22
			c0.21-0.15,0.36-0.36,0.45-0.64s0.15-0.54,0.17-0.77c0.02-0.23,0.04-0.52,0.04-0.86v-12.41c0-0.34-0.01-0.63-0.04-0.86
			c-0.03-0.23-0.08-0.49-0.17-0.76c-0.09-0.28-0.24-0.49-0.45-0.64c-0.21-0.15-0.48-0.22-0.82-0.22c-0.27,0-0.5,0.06-0.7,0.17
			s-0.34,0.24-0.43,0.39c-0.1,0.15-0.17,0.35-0.22,0.61c-0.05,0.26-0.08,0.47-0.08,0.64c-0.01,0.17-0.01,0.4-0.01,0.69v12.41
			c0,0.28,0,0.51,0.01,0.68c0,0.17,0.03,0.39,0.08,0.64c0.05,0.26,0.12,0.46,0.22,0.61c0.1,0.15,0.24,0.28,0.43,0.39
			S50.06,134.13,50.34,134.13z"/>
		<path class="st6" d="M72.6,137.84c-1.02,0.37-2.24,0.55-3.67,0.55s-2.66-0.18-3.67-0.55c-1.01-0.37-1.81-0.92-2.41-1.65
			s-1.03-1.6-1.29-2.59c-0.26-0.99-0.39-2.17-0.39-3.52v-9.27c0-1.35,0.13-2.53,0.39-3.52s0.69-1.86,1.29-2.59s1.4-1.28,2.41-1.65
			c1.01-0.37,2.23-0.55,3.67-0.55s2.66,0.18,3.67,0.55c1.02,0.37,1.82,0.92,2.42,1.65s1.04,1.6,1.3,2.59s0.4,2.17,0.4,3.52v9.27
			c0,1.35-0.13,2.53-0.4,3.52c-0.27,1-0.7,1.86-1.3,2.59S73.62,137.47,72.6,137.84z M68.93,134.13c0.33,0,0.61-0.07,0.82-0.22
			c0.21-0.15,0.36-0.36,0.45-0.64s0.15-0.54,0.17-0.77c0.02-0.23,0.04-0.52,0.04-0.86v-12.41c0-0.34-0.01-0.63-0.04-0.86
			c-0.03-0.23-0.08-0.49-0.17-0.76c-0.09-0.28-0.24-0.49-0.45-0.64c-0.21-0.15-0.48-0.22-0.82-0.22c-0.27,0-0.5,0.06-0.7,0.17
			s-0.34,0.24-0.43,0.39c-0.1,0.15-0.17,0.35-0.22,0.61c-0.05,0.26-0.08,0.47-0.08,0.64c-0.01,0.17-0.01,0.4-0.01,0.69v12.41
			c0,0.28,0,0.51,0.01,0.68c0,0.17,0.03,0.39,0.08,0.64c0.05,0.26,0.12,0.46,0.22,0.61c0.1,0.15,0.24,0.28,0.43,0.39
			S68.66,134.13,68.93,134.13z"/>
		<path class="st6" d="M80.07,138v-25.12h6.62c1.73,0,3.15,0.14,4.27,0.43c1.12,0.29,2.01,0.76,2.67,1.43
			c0.67,0.67,1.13,1.49,1.4,2.46c0.27,0.98,0.4,2.21,0.4,3.69v9.06c0,1.5-0.13,2.73-0.4,3.7c-0.27,0.98-0.73,1.8-1.4,2.47
			c-0.67,0.67-1.56,1.15-2.67,1.44S88.42,138,86.7,138H80.07z M86.22,133.75h0.58c0.52,0,0.94-0.04,1.25-0.13
			c0.31-0.08,0.54-0.24,0.7-0.46c0.16-0.22,0.26-0.47,0.3-0.73s0.07-0.64,0.07-1.13v-11.79c0-0.49-0.02-0.86-0.07-1.12
			c-0.05-0.26-0.15-0.5-0.3-0.71c-0.16-0.21-0.39-0.36-0.7-0.44c-0.31-0.08-0.73-0.12-1.25-0.12h-0.58V133.75z"/>
		<path class="st6" d="M106.96,138v-25.12h9.09c2.23,0,3.91,0.63,5.05,1.89s1.7,3.09,1.7,5.49c0,1.23-0.14,2.3-0.42,3.2
			s-0.64,1.61-1.08,2.14s-1,0.94-1.69,1.26c-0.69,0.31-1.37,0.52-2.05,0.62c-0.68,0.1-1.47,0.15-2.37,0.15h-2.08V138H106.96z
			 M113.12,123.36h1.95c0.83,0,1.36-0.25,1.61-0.75c0.24-0.5,0.36-1.33,0.36-2.49c0-0.33-0.01-0.62-0.03-0.85
			c-0.02-0.23-0.07-0.49-0.14-0.77c-0.08-0.28-0.18-0.51-0.33-0.69s-0.34-0.33-0.6-0.45c-0.26-0.12-0.57-0.18-0.93-0.18h-1.89
			V123.36z"/>
		<path class="st6" d="M125.5,138v-25.12h7.5c1.07,0,2.02,0.06,2.84,0.17s1.61,0.31,2.36,0.61s1.37,0.68,1.85,1.17
			c0.48,0.49,0.86,1.13,1.14,1.91c0.28,0.78,0.42,1.71,0.42,2.77c0,1.69-0.21,3.03-0.64,4.03c-0.42,1-1.24,1.81-2.44,2.44
			l3.42,12.03h-6.44l-2.61-11.11h-1.27V138H125.5z M131.65,123.51h1.61c1.01,0,1.71-0.29,2.1-0.87c0.39-0.58,0.58-1.41,0.58-2.48
			c0-1.03-0.18-1.83-0.55-2.39s-0.98-0.84-1.83-0.84h-1.91V123.51z"/>
		<path class="st6" d="M155.98,137.84c-1.02,0.37-2.24,0.55-3.67,0.55s-2.66-0.18-3.67-0.55c-1.01-0.37-1.81-0.92-2.41-1.65
			s-1.03-1.6-1.29-2.59c-0.26-0.99-0.39-2.17-0.39-3.52v-9.27c0-1.35,0.13-2.53,0.39-3.52s0.69-1.86,1.29-2.59s1.4-1.28,2.41-1.65
			c1.01-0.37,2.23-0.55,3.67-0.55s2.66,0.18,3.67,0.55c1.02,0.37,1.82,0.92,2.42,1.65s1.04,1.6,1.3,2.59s0.4,2.17,0.4,3.52v9.27
			c0,1.35-0.13,2.53-0.4,3.52c-0.27,1-0.7,1.86-1.3,2.59S156.99,137.47,155.98,137.84z M152.3,134.13c0.33,0,0.61-0.07,0.82-0.22
			c0.21-0.15,0.36-0.36,0.45-0.64s0.15-0.54,0.17-0.77c0.02-0.23,0.04-0.52,0.04-0.86v-12.41c0-0.34-0.01-0.63-0.04-0.86
			c-0.03-0.23-0.08-0.49-0.17-0.76c-0.09-0.28-0.24-0.49-0.45-0.64c-0.21-0.15-0.48-0.22-0.82-0.22c-0.27,0-0.5,0.06-0.7,0.17
			s-0.34,0.24-0.43,0.39c-0.1,0.15-0.17,0.35-0.22,0.61c-0.05,0.26-0.08,0.47-0.08,0.64c-0.01,0.17-0.01,0.4-0.01,0.69v12.41
			c0,0.28,0,0.51,0.01,0.68c0,0.17,0.03,0.39,0.08,0.64c0.05,0.26,0.12,0.46,0.22,0.61c0.1,0.15,0.24,0.28,0.43,0.39
			S152.03,134.13,152.3,134.13z"/>
		<path class="st6" d="M170.91,138.39c-1.43,0-2.66-0.19-3.67-0.57c-1.02-0.38-1.82-0.94-2.41-1.69c-0.59-0.75-1.02-1.62-1.29-2.62
			c-0.27-1-0.4-2.18-0.4-3.53v-9.08c0-1.36,0.13-2.55,0.4-3.55c0.27-1,0.7-1.87,1.29-2.62c0.59-0.75,1.39-1.31,2.41-1.69
			s2.24-0.57,3.67-0.57c1.14,0,2.15,0.12,3.02,0.36c0.87,0.24,1.58,0.57,2.14,0.98c0.56,0.42,1.02,0.94,1.37,1.56
			c0.35,0.62,0.6,1.29,0.75,1.99s0.22,1.5,0.22,2.36v2.26h-6.05v-2.76c0-0.36-0.01-0.65-0.03-0.87c-0.02-0.22-0.07-0.47-0.16-0.76
			c-0.09-0.29-0.23-0.5-0.45-0.65c-0.21-0.15-0.48-0.22-0.82-0.22c-0.27,0-0.51,0.06-0.7,0.17c-0.2,0.11-0.35,0.24-0.45,0.39
			c-0.1,0.15-0.18,0.35-0.23,0.61c-0.06,0.25-0.09,0.47-0.11,0.67c-0.02,0.19-0.02,0.42-0.02,0.68v12.36c0,0.26,0.01,0.49,0.02,0.69
			c0.02,0.2,0.05,0.42,0.11,0.67c0.06,0.25,0.14,0.45,0.24,0.61c0.1,0.16,0.25,0.29,0.45,0.39c0.2,0.11,0.43,0.16,0.69,0.16
			c0.33,0,0.61-0.07,0.82-0.22c0.21-0.15,0.36-0.37,0.45-0.66c0.09-0.29,0.14-0.55,0.16-0.76c0.02-0.22,0.03-0.51,0.03-0.87v-2.88
			h6.05v2.24c0,0.88-0.07,1.67-0.22,2.39c-0.15,0.71-0.4,1.39-0.75,2.02c-0.35,0.64-0.81,1.17-1.37,1.6
			c-0.56,0.43-1.28,0.77-2.14,1.02C173.06,138.26,172.05,138.39,170.91,138.39z"/>
		<path class="st6" d="M181.33,138v-25.12h11.76v4.12h-5.61v5.61h4.18v4.27h-4.18v7.02h5.67V138H181.33z"/>
		<path class="st6" d="M202.49,138.39c-2.48,0-4.32-0.63-5.49-1.88c-1.18-1.25-1.8-3.34-1.87-6.27l5.21-0.68
			c0,0.83,0.05,1.53,0.14,2.09c0.09,0.57,0.22,1,0.39,1.29c0.17,0.3,0.36,0.51,0.55,0.63c0.2,0.12,0.43,0.18,0.69,0.18
			c0.69,0,1.03-0.49,1.03-1.48c0-0.97-0.22-1.8-0.66-2.5c-0.44-0.7-1.14-1.46-2.11-2.29l-1.59-1.35c-0.58-0.49-1.05-0.93-1.42-1.32
			s-0.74-0.86-1.12-1.42s-0.66-1.18-0.84-1.86c-0.18-0.68-0.27-1.43-0.27-2.26c0-2.17,0.65-3.85,1.96-5.02
			c1.31-1.18,3.11-1.77,5.42-1.78c4.12,0,6.2,2.44,6.23,7.33l-5.33,0.53c0-0.66-0.01-1.15-0.02-1.48s-0.06-0.67-0.13-1.01
			c-0.07-0.35-0.18-0.59-0.34-0.73c-0.16-0.14-0.37-0.21-0.63-0.21c-0.37,0.01-0.66,0.21-0.85,0.59c-0.19,0.38-0.29,0.77-0.29,1.17
			c0,0.21,0.02,0.42,0.05,0.62c0.04,0.2,0.07,0.38,0.1,0.54c0.03,0.16,0.1,0.33,0.2,0.52s0.18,0.34,0.23,0.45
			c0.05,0.11,0.15,0.26,0.3,0.44c0.15,0.18,0.25,0.31,0.3,0.38c0.05,0.07,0.17,0.2,0.36,0.38c0.19,0.18,0.31,0.29,0.35,0.33
			s0.17,0.15,0.39,0.35s0.34,0.31,0.36,0.33l1.45,1.29c0.62,0.56,1.14,1.08,1.57,1.56c0.43,0.48,0.84,1.04,1.23,1.67
			c0.39,0.63,0.69,1.32,0.89,2.06c0.2,0.74,0.3,1.54,0.3,2.4c0,1.81-0.62,3.33-1.86,4.56C206.14,137.77,204.51,138.39,202.49,138.39
			z"/>
		<path class="st6" d="M218.81,138.39c-2.48,0-4.32-0.63-5.49-1.88c-1.18-1.25-1.8-3.34-1.87-6.27l5.21-0.68
			c0,0.83,0.05,1.53,0.14,2.09c0.09,0.57,0.22,1,0.39,1.29c0.17,0.3,0.36,0.51,0.55,0.63c0.2,0.12,0.43,0.18,0.69,0.18
			c0.69,0,1.03-0.49,1.03-1.48c0-0.97-0.22-1.8-0.66-2.5c-0.44-0.7-1.14-1.46-2.11-2.29l-1.59-1.35c-0.58-0.49-1.05-0.93-1.42-1.32
			s-0.74-0.86-1.12-1.42s-0.66-1.18-0.84-1.86c-0.18-0.68-0.27-1.43-0.27-2.26c0-2.17,0.65-3.85,1.96-5.02
			c1.31-1.18,3.11-1.77,5.42-1.78c4.12,0,6.2,2.44,6.23,7.33l-5.33,0.53c0-0.66-0.01-1.15-0.02-1.48s-0.06-0.67-0.13-1.01
			c-0.07-0.35-0.18-0.59-0.34-0.73c-0.16-0.14-0.37-0.21-0.63-0.21c-0.37,0.01-0.66,0.21-0.85,0.59c-0.19,0.38-0.29,0.77-0.29,1.17
			c0,0.21,0.02,0.42,0.05,0.62c0.04,0.2,0.07,0.38,0.1,0.54c0.03,0.16,0.1,0.33,0.2,0.52s0.18,0.34,0.23,0.45
			c0.05,0.11,0.15,0.26,0.3,0.44c0.15,0.18,0.25,0.31,0.3,0.38c0.05,0.07,0.17,0.2,0.36,0.38c0.19,0.18,0.31,0.29,0.35,0.33
			s0.17,0.15,0.39,0.35s0.34,0.31,0.36,0.33l1.45,1.29c0.62,0.56,1.14,1.08,1.57,1.56c0.43,0.48,0.84,1.04,1.23,1.67
			c0.39,0.63,0.69,1.32,0.89,2.06c0.2,0.74,0.3,1.54,0.3,2.4c0,1.81-0.62,3.33-1.86,4.56C222.46,137.77,220.83,138.39,218.81,138.39
			z"/>
		<path class="st6" d="M228.25,138v-25.12h6.14V138H228.25z"/>
		<path class="st6" d="M238.04,138v-25.12h4.36l4.59,10.76v-10.76h5.08V138h-4.2l-4.56-11.82V138H238.04z"/>
		<path class="st6" d="M262.45,138.39c-1.3,0-2.42-0.21-3.35-0.64c-0.93-0.42-1.66-1.04-2.18-1.83c-0.53-0.8-0.91-1.71-1.14-2.73
			c-0.24-1.02-0.36-2.2-0.36-3.53v-8.46c0-1.36,0.13-2.56,0.4-3.6c0.27-1.04,0.7-1.94,1.29-2.73c0.59-0.78,1.4-1.38,2.42-1.79
			s2.25-0.61,3.68-0.61c1.14,0,2.15,0.12,3.02,0.37c0.87,0.25,1.59,0.58,2.16,1.01c0.57,0.42,1.03,0.95,1.39,1.58
			c0.36,0.63,0.62,1.31,0.77,2.02c0.15,0.72,0.23,1.51,0.23,2.38v1.8h-6.05v-2.41c0-0.28-0.01-0.51-0.02-0.69
			c-0.01-0.18-0.04-0.39-0.09-0.65c-0.05-0.26-0.12-0.46-0.22-0.61c-0.1-0.15-0.24-0.27-0.43-0.39s-0.42-0.17-0.7-0.17
			c-0.33,0-0.61,0.08-0.83,0.23c-0.22,0.15-0.38,0.37-0.48,0.64c-0.1,0.28-0.16,0.54-0.19,0.79c-0.03,0.25-0.05,0.54-0.05,0.87
			v12.32c0,0.31,0.03,0.6,0.08,0.87c0.05,0.27,0.13,0.53,0.25,0.79s0.29,0.47,0.53,0.63c0.24,0.16,0.52,0.24,0.86,0.24
			c0.43,0,0.8-0.14,1.08-0.42c0.29-0.28,0.48-0.6,0.58-0.96s0.14-0.75,0.14-1.16v-3.27h-2.02v-3.53h7.55V138h-4.11l-0.3-1.83
			C265.64,137.65,264.33,138.39,262.45,138.39z"/>
	</g>
</g>
</svg>
