<?xml version="1.0" encoding="utf-8"?>
<!-- Generator: Adobe Illustrator 25.0.0, SVG Export Plug-In . SVG Version: 6.00 Build 0)  -->
<svg version="1.1" id="Layer_1" xmlns="http://www.w3.org/2000/svg" xmlns:xlink="http://www.w3.org/1999/xlink" x="0px" y="0px"
	 viewBox="0 0 299.57 152.24" style="enable-background:new 0 0 299.57 152.24;" xml:space="preserve">
<style type="text/css">
	.st0{fill:#8B4513;}
	.st1{fill:none;stroke:#8B4513;stroke-width:2;stroke-miterlimit:10;}
	.st2{fill:#6D6E71;}
	.st3{fill:#FFFFFF;}
	.st4{fill:#B72025;}
	.st5{fill:#1D1D1B;}
	.st6{fill:#F1E8DB;}
	.st7{fill:#F57C00;}
	.st8{fill:#868383;}
	.st9{clip-path:url(#SVGID_2_);}
	.st10{opacity:0.5;}
	.st11{clip-path:url(#SVGID_4_);}
	.st12{fill:#CC9625;}
	.st13{clip-path:url(#SVGID_6_);}
	.st14{fill:#414042;}
</style>
<g>
	<path class="st6" d="M151.74,117.67c-7.41,0-13.11-2.1-17.1-6.3c-3.99-4.2-5.98-9.88-5.98-17.03V56.36
		c0-7.45,1.93-13.32,5.78-17.62c3.85-4.3,9.62-6.45,17.3-6.45c7.61,0,13.34,2.16,17.2,6.48c3.85,4.32,5.78,10.18,5.78,17.6v37.97
		c0,7.02-2.02,12.66-6.06,16.93C164.63,115.53,158.98,117.67,151.74,117.67z M151.74,100.74c2.55,0,3.82-2.33,3.82-7V57.01
		c0-0.03,0-0.29,0-0.77c0-0.48,0-0.83,0-1.04c0-0.21-0.02-0.57-0.05-1.07c-0.03-0.5-0.08-0.89-0.15-1.17
		c-0.07-0.28-0.16-0.65-0.27-1.09c-0.12-0.45-0.27-0.79-0.47-1.04c-0.2-0.25-0.42-0.5-0.67-0.77c-0.25-0.26-0.56-0.45-0.94-0.57
		c-0.38-0.12-0.8-0.17-1.27-0.17c-0.6,0-1.13,0.09-1.59,0.27c-0.46,0.18-0.83,0.49-1.09,0.92c-0.27,0.43-0.49,0.82-0.67,1.17
		c-0.18,0.35-0.31,0.84-0.37,1.49c-0.07,0.64-0.1,1.1-0.1,1.36c0,0.13,0,0.33,0,0.6c0,0.23,0,0.51,0,0.84c0,0.66,0,1.01,0,1.04
		v36.73C147.91,98.41,149.19,100.74,151.74,100.74z"/>
	<path class="st6" d="M204.36,115.98V97.81H178.8V85.15l21.54-51.48h20.4V85h7.45v12.81h-7.45v18.17H204.36z M191.9,85h12.46V51
		L191.9,85z"/>
	<path class="st6" d="M255.99,117.67c-3.61,0-6.78-0.44-9.51-1.32c-2.73-0.88-4.97-2.07-6.73-3.6c-1.75-1.52-3.17-3.45-4.24-5.78
		c-1.08-2.33-1.84-4.82-2.28-7.47c-0.45-2.65-0.67-5.66-0.67-9.03v-2.93h18.76v3.23c0,4.24,0.35,7.14,1.07,8.71
		c0.71,1.57,2.01,2.36,3.9,2.36c1.75,0,2.93-0.72,3.52-2.16c0.6-1.44,0.89-3.96,0.89-7.57c0-4.3-0.54-7.35-1.61-9.13
		s-3.24-2.7-6.48-2.73h-3.47V68.32h3.13c3.34,0,5.59-0.92,6.73-2.75c1.14-1.84,1.71-4.92,1.71-9.26c0-3.14-0.37-5.45-1.12-6.92
		c-0.74-1.47-2.03-2.21-3.85-2.21c-1.72,0-2.89,0.77-3.5,2.31c-0.61,1.54-0.92,3.83-0.92,6.87v5.06h-18.76v-5.61
		c0-7.58,2.05-13.4,6.16-17.47c4.1-4.07,9.76-6.11,16.98-6.11c7.38,0,13.14,1.92,17.27,5.76c4.14,3.84,6.21,9.47,6.21,16.88
		c0,4.67-0.93,8.68-2.78,12.04c-1.85,3.36-4.12,5.39-6.8,6.08c1.39,0.56,2.63,1.28,3.72,2.13c1.09,0.86,2.09,1.99,3,3.4
		c0.91,1.41,1.61,3.2,2.11,5.39c0.5,2.18,0.74,4.72,0.74,7.59c0,3.91-0.42,7.41-1.27,10.52c-0.85,3.11-2.16,5.86-3.95,8.24
		c-1.79,2.38-4.19,4.21-7.22,5.48C263.71,117.03,260.13,117.67,255.99,117.67z"/>
</g>
<g>
	<g>
		<path class="st6" d="M35.76,123.99c-1.64,0-3.26-0.62-4.57-1.75c-1.44-1.23-2.34-2.96-2.47-4.74c-0.12-1.56,0.36-3.04,1.34-4.17
			l73.21-81.87c0.7-0.82,1.79-1.31,2.94-1.31c1.15,0,2.29,0.48,3.12,1.32c0.82,0.82,1.27,1.9,1.27,3.03
			c-0.07,33.11-23.54,40.4-29.08,41.65l-41.4,45.9C39.11,123.27,37.5,123.99,35.76,123.99C35.76,123.99,35.76,123.99,35.76,123.99z"
			/>
	</g>
	<path class="st6" d="M13.35,52.1c-0.04-0.17-0.06-0.35-0.12-0.52c-0.52-1.63,0-3.25,1.3-4.05c1.41-0.87,3.06-0.69,4.3,0.55
		c3.45,3.42,6.88,6.87,10.31,10.3c1.53,1.53,3.05,3.05,4.62,4.62c1.6-1.6,3.12-3.12,4.76-4.76c-0.27-0.27-0.55-0.55-0.83-0.83
		c-4.68-4.68-9.36-9.35-14.03-14.04c-1.88-1.89-1.33-4.82,1.05-5.67c1.46-0.52,2.7-0.1,3.77,0.98c4.62,4.63,9.25,9.25,13.87,13.88
		c0.29,0.29,0.57,0.57,0.91,0.91c1.59-1.59,3.14-3.14,4.76-4.76c-0.3-0.3-0.59-0.59-0.87-0.87c-4.65-4.65-9.31-9.3-13.95-13.96
		c-1.86-1.87-1.41-4.71,0.88-5.65c1.33-0.54,2.62-0.34,3.63,0.68c6.83,6.81,13.76,13.52,20.41,20.51c4.07,4.28,5.39,9.65,4.39,15.49
		c-0.17,0.98,0.06,1.56,0.73,2.22c13.37,13.33,26.71,26.68,40.06,40.03c4.16,4.16,4.59,6.25,2.34,11.54
		c-0.63,0.63-1.27,1.27-1.9,1.9c-0.07,0-0.16-0.01-0.22,0.02c-4.12,2.17-7.26,1.71-10.53-1.57c-13.64-13.64-27.28-27.27-40.89-40.93
		c-0.66-0.66-1.24-0.83-2.15-0.66c-4.06,0.76-7.96,0.17-11.64-1.7c-1.12-0.57-2.16-1.29-3.24-1.94
		C27.83,66.58,20.59,59.34,13.35,52.1z"/>
</g>
</svg>
